<?xml version="1.0" encoding="UTF-8"?>
<svg xmlns="http://www.w3.org/2000/svg" id="Layer_2" data-name="Layer 2" viewBox="0 0 1476.745 375.747">
  <defs>
    <style>
      .cls-1 {
        fill: #428ea5;
      }

      .cls-2 {
        fill: #f68a23;
      }

      .cls-3 {
        fill: #fff;
      }

      .cls-4 {
        fill: #ffd688;
      }

      .cls-5 {
        fill: #6fbfd7;
      }
    </style>
  </defs>
  <g>
    <path class="cls-1" d="M60.941,15.506v173.201c0,20.091,3.938,39.589,11.704,57.951,7.499,17.729,18.231,33.648,31.899,47.316,13.668,13.668,29.587,24.4,47.316,31.899,18.362,7.766,37.859,11.704,57.951,11.704s39.589-3.938,57.951-11.704c17.729-7.499,33.648-18.231,47.316-31.899,13.668-13.668,24.4-29.587,31.898-47.316,7.766-18.362,11.704-37.859,11.704-57.951V15.506H60.941Z"></path>
    <path class="cls-5" d="M122.565,52.581c5.402-1.558,11.145-2.28,17.072-2.018,11.151.492,21.345,4.391,29.627,10.645,22.235-7.906,34.734-.081,55.302-16.796,8.322-6.763,16.384-11.599,23.515-15.054H101.901c9.115,5.387,16.366,13.526,20.663,23.223Z"></path>
    <path class="cls-3" d="M139.637,50.563c-5.927-.261-11.67.46-17.072,2.018-4.297-9.698-11.549-17.836-20.663-23.223h-27.197v68.808c3.33-.732,6.688-1.518,10.057-2.358,13.98-3.485,28.147-7.899,41.256-13.238,9.659-3.934,18.745-8.369,26.757-13.303,6.11-3.763,11.539-6.299,16.488-8.059-8.282-6.254-18.475-10.153-29.627-10.645Z"></path>
    <path class="cls-4" d="M274.381,164.612c-5.033.162-9.197,3.346-9.3,7.111-.104,3.765,3.892,6.686,8.924,6.524,5.032-.162,9.197-3.346,9.3-7.112.104-3.765-3.892-6.686-8.924-6.524Z"></path>
    <path class="cls-4" d="M125.255,189.067c-4.261-.535-8.314,1.534-9.052,4.62-.738,3.087,2.117,6.023,6.378,6.558,4.261.535,8.314-1.534,9.052-4.621.739-3.087-2.117-6.023-6.378-6.558Z"></path>
    <path class="cls-2" d="M190.345,292.775c26.445,12.426,51.201,13.188,68.602,10.688-.002-.052-.012-.099-.012-.151-.052-4.465,3.83-5.41,6.387-7.49,3.428-2.789-.572-3.224-1.077-5.905-.605-3.212,8.538-4.116,9.561-6.771.904-2.345-1.342-9.838,1.708-11.805,5.593-3.607,11.378,1.024,14.74,2.379,2.319.935,5.555.628,7.278-1.184,1.684-1.769,8.161-6.536,12.778-3.163.779.569.975,1.886.931,3.239,20.514-22.688,33.979-52.933,35.545-84.393.459-9.213-2.227-23.744-15.554-26.381-9.422-1.865-15.362,4.957-18.313,10.877-3.56,7.142-8.909,5.664-15.302,7.994-9.396,3.424-.309,9.97-5.223,15.144-4.33,4.56-10.619,1.241-10.314,9.447.153,4.103,1.293,7.387,2.775,11.042,2.413,5.951,5.587,11.018,5.968,17.55.346,16.932-5.966,13.373-6.233,9.165-.562-8.862-3.083-19.639-12.536-23.796-8.205-3.608-15.203-1.332-20.565,4.586-6.021,6.646-14.653,3.831-22.248,8.014-3.297,1.816-5.084,4.163-6.784,7.23-1.256,2.266-2.017,6.469-3.733,7.66-7.477-.08-16.114,2.947-16.764,10.972-1.11,13.697,17.941,18.248,26.871,20.823,3.879,1.118,2.709,6.878-1.277,6.279-3.822-.575-7.678-1.844-10.714-2.974-5.927-2.208-10.506-4.808-15.203-9.083-4.672-4.252-9.585-8.684-16.502-8.696-2.313-.004-10.736.125-7.614,6.53,3.514,7.21-2.862,1.99-7.587,2.21-5.27.245-1.996,9.437,20.409,19.965Z"></path>
    <path class="cls-4" d="M136.48,135.451c-3.177-1.457-6.705-1.476-9.679-.054-3.024,1.446-5.172,4.145-6.048,7.598v.007c-.182.787.024,1.52.564,2.012.395.359.922.553,1.451.553.223,0,.446-.035.66-.105.693-.23,1.179-.815,1.336-1.618.362-2.375,1.747-4.468,3.708-5.601,1.929-1.148,4.524-1.308,7.131-.436.778.23,1.347-.235,1.545-.765.198-.531.073-1.254-.667-1.59Z"></path>
    <path class="cls-4" d="M276.364,86.385c-3.218-1.859-7.039-2.143-10.758-.799l-.006.002c-.918.361-1.109,1.227-.899,1.88.21.651.871,1.242,1.828.996,2.803-.757,5.756-.265,7.899,1.32,2.031,1.459,3.314,3.973,3.619,7.112.319,1.364,1.352,1.923,2.336,1.923.174,0,.346-.017.512-.051,1.109-.224,2.178-1.204,1.903-2.83-.736-4.133-3.081-7.615-6.434-9.553Z"></path>
    <path class="cls-4" d="M199.459,217.601c.189-.144.377-.289.565-.434,23.994-15.835,41.19-39.641,48.899-66.746,9.164,6.789,20.2,10.453,31.862,10.453,10.584,0,20.977-3.167,29.74-8.987l2.927,19.818c3.104-5.653,8.893-11.626,17.783-9.866,8.347,1.652,12.519,7.97,14.359,14.725V29.358h-97.512c-7.131,3.454-15.193,8.291-23.515,15.054-20.568,16.715-33.068,8.89-55.302,16.796-4.949,1.76-10.378,4.295-16.488,8.059-8.012,4.934-17.098,9.369-26.757,13.303-13.11,5.339-27.276,9.753-41.256,13.238-3.369.84-6.727,1.626-10.057,2.358v90.88c0,20.675,4.64,40.265,12.925,57.794l.08.174,5.709-21.046c3.986-14.694,6.862-29.651,8.612-44.742,6.764,1.965,13.722,2.957,20.795,2.957,2.083,0,4.177-.086,6.278-.257,10.188-.833,19.854-3.634,28.788-8.321,1.428,4.679,4.432,8.894,8.802,11.777h0c6.341,4.184,12.087,9.015,17.188,14.363,11.85-11.519,19.049-27.773,14.202-44.185-3.35-11.858-11.768-21.256-21.931-28.35-3.194-2.192-3.992-6.576-1.772-9.751,2.239-3.218,6.723-3.951,9.871-1.616,3.989,2.949,7.786,6.228,11.246,9.901,24.02,25.478,20.575,57.912-1.339,79.943-12.85,11.761-23.886,26.184-29.382,42.846-.161.473-.002,1.016.427,1.32.524.371,1.252.244,1.619-.282,3.118-4.406,6.291-8.678,9.714-12.671,6.805-8.06,14.594-14.844,22.922-21.297ZM169.341,139.319c-.711,2.521-2.562,4.429-5.032,5.053-2.183.569-5.313.624-7.53-.916-.144-.117-.223-.204-.286-.295-.028-.06-.059-.118-.093-.173l1.344-3.122c.278-.646.171-1.402-.274-1.926-.36-.425-.879-.604-1.386-.478l-8.262,2.046c-.63.156-1.078.728-1.141,1.458-.067.771.314,1.478.948,1.759l4.752,2.105c-.027.086-.054.172-.085.263-1.274,3.59-3.663,6.726-6.558,8.606-3.33,2.217-7.768,2.537-12.175.877l-.005-.002c-.649-.232-1.186.134-1.381.616-.196.484-.066,1.123.56,1.407,2.355,1.089,4.878,1.632,7.324,1.632,2.613,0,5.139-.62,7.273-1.854,3.536-2,6.5-5.287,8.222-8.993,1.423.653,3.076.922,4.703.922,1.845,0,3.658-.346,5.063-.87.379-.135.741-.296,1.094-.471l-3.463,5.72-3.383,6.236c-2.097,3.865-2.898,8.105-2.542,12.208-8.734,4.79-18.238,7.634-28.279,8.454-8.962.731-17.767-.201-26.242-2.762,1.033-10.204,1.556-20.465,1.556-30.742v-37.899l.946.126c7.389.983,13.953,4.706,18.572,10.188l5.975-2.468c.156-6.212,2.571-12.29,7.023-16.974l.573-.603,8.564,11.502,11.229,10.667c.136.129.182.305.154.467-2.671.861-4.872,2.719-6.288,4.608-.591.77-.312,1.599.197,2.044.262.229.617.383.994.383.355,0,.73-.137,1.066-.476,1.556-1.726,3.334-2.83,5.142-3.193,1.007-.201,1.951-.19,2.786.015l3.538,3.361c2.491,2.366,4.207,5.471,4.699,8.871.128.881.165,1.767.107,2.628ZM215.564,71.829l25.265,1.564,21.868,1.074,2.105-.346c9.008-1.482,18.069-2.62,27.163-3.411l8.463-.737c.35-.03.676.181.791.513l2.456,7.072c7.051,20.304,19.518,37.612,35.91,49.863.221.166.214.502-.017.654-9.573,6.327-20.31,9.791-31.057,10.179l1.303,8.82c-8.463,6.181-18.449,9.438-29.029,9.438-11.309,0-21.979-3.75-30.661-10.67,1.992-8.239,3.121-16.749,3.307-25.406-3.082-1.759-6.116-3.483-9.011-5.12-12.031-6.802-22.786-10.064-22-12.911.043-.157.121-.277.215-.375.057-.059.122-.109.19-.152,2.02.143,4.113.518,6.325,1.135,2.333.636,5.564,1.836,8.161,2.8.663.246,1.294.48,1.872.691,3.269,1.199,6.759,2.201,10.204,2.201,3.935,0,7.81-1.307,11.224-5.119.411-.461.273-1.011-.029-1.326-.304-.318-.849-.481-1.328-.089-6.254,5.196-12.229,3.506-18.832.954l-.159-.061c-5.923-2.28-12.551-4.829-19.184-4.179-.765-.198-1.451-.657-1.914-1.322-1.022-1.471-1.926-3.521-2.308-6.354l-2.139-18.487c-.057-.496.348-.923.846-.892Z"></path>
    <path class="cls-4" d="M276.06,261.933c.692,2.605.707,4.544-.901,5.118s-2.853-.927-4.008-3.366c-1.424-3.007-2.177-6.25.179-7.09,2.356-.84,3.877,2.129,4.73,5.339Z"></path>
    <path class="cls-4" d="M286.585,260.674c-.294,3.076-1.023,5.163-2.884,5.126-1.86-.037-2.553-2.153-2.795-5.24-.298-3.805.179-7.591,2.904-7.536s3.137,3.859,2.774,7.65Z"></path>
    <path class="cls-4" d="M267.944,270.073c1.931,2.076,2.865,3.934,1.516,5.489s-3.314.886-5.633-.742c-2.859-2.007-5.155-4.659-3.179-6.937s4.915-.369,7.296,2.19Z"></path>
    <path class="cls-4" d="M262.973,279.586c2.543-.088,4.357.378,4.64,2.231s-1.315,2.802-3.776,3.423c-3.034.766-6.182.76-6.597-1.953-.414-2.714,2.599-3.592,5.733-3.7Z"></path>
    <path class="cls-4" d="M254.344,273.718c1.779.52,2.928,1.253,2.702,2.59s-1.548,1.624-3.392,1.489c-2.273-.166-4.45-.888-4.119-2.846s2.616-1.874,4.809-1.233Z"></path>
    <path class="cls-4" d="M262.298,256.263c1.425,1.726,2.093,3.207,1.024,4.281s-2.553.412-4.285-1.004c-2.135-1.746-3.824-3.937-2.259-5.509s3.764.106,5.52,2.233Z"></path>
    <path class="cls-4" d="M278.604,249.44c.07,1.714-.235,2.932-1.48,3.102s-1.891-.917-2.32-2.583c-.529-2.053-.539-4.174,1.285-4.424s2.428,1.791,2.515,3.904Z"></path>
    <path class="cls-4" d="M256.249,292.429c1.89-.662,3.363-.734,4.009.602s-.333,2.429-2.037,3.476c-2.101,1.29-4.469,2.024-5.415.067-.946-1.957,1.113-3.328,3.443-4.144Z"></path>
    <path class="cls-4" d="M297.004,266.021c-1.052,2.233-2.258,3.582-3.979,2.968-1.72-.614-1.829-2.433-1.272-4.843.686-2.971,2.088-5.684,4.608-4.784,2.52.9,1.94,3.906.643,6.659Z"></path>
    <path class="cls-4" d="M312.258,261.376c-1.313,2.101-2.675,3.303-4.322,2.489s-1.542-2.638-.703-4.973c1.034-2.879,2.751-5.416,5.163-4.224s1.48,4.119-.138,6.708Z"></path>
    <path class="cls-2" d="M262.242,309.039c-3.348-3.172-11.123-.464-16.58-.084-3.433.239-11.953,2.218-27.951-.078-1.292-.185-4.771-.478-5.552-.108-5.944,2.818,10.153,8.404,13.019,9.157,18.097,4.756,40.417-5.71,37.064-8.887Z"></path>
    <path class="cls-4" d="M310.311,269.373c-4.617-3.373-11.094,1.394-12.778,3.163-1.724,1.811-4.96,2.118-7.278,1.184-3.362-1.355-9.147-5.986-14.74-2.379-3.05,1.967-.805,9.46-1.708,11.805-1.023,2.655-10.167,3.559-9.561,6.771.505,2.68,4.505,3.116,1.077,5.905-2.557,2.08-6.44,3.026-6.387,7.49,0,.053.01.1.012.151,4.078-.586,7.75-1.351,10.947-2.187-.064-1.482-.448-2.747,2.821-3.576,2.253-.571,5.567-2.224,1.35-4.98-2.875-1.879-3.956-4.328-.745-4.514,3.707-.215,10.426,4.374,10.053-1.248-.071-1.071-1.164-2.801-1.755-4.176-1.062-2.471,1.522-3.465,4.966-1.883,3.557,1.634,5.206,4.554,8.951,2.174,3.202-2.035,7.142-10.032,10.867-5.38,1.654-1.648,3.268-3.343,4.841-5.082.044-1.353-.152-2.67-.931-3.239Z"></path>
    <path class="cls-2" d="M175.053,319.243c-3-6.636,10.589.422,14.058,1.525,3.469,1.104,1.637-3.194,4.013-3.157,2.643.041,6.887,5.017,9.666,4.71,2.721-.3,3.575-3.869,6.212-4.041h.001c-1.636-3.776-11.425-14.25-13.908-15.976-5.113-3.554-11.552-5.647-14.089-4.883-3.316.999-2.821,3.483-.897,8.126,3.257,7.863-6.11,2.287-8.914-5.736-1.399-4.005-1.706-3.996-3.181-7.987-1.67-4.518-5.482-12.87-11.429-13.304-5.809-.424-9.192.826-5.858,10.015,1.053,2.902,6.59,12.829,4.067,14.573-2.078,1.436-10.564-10.871-11.466-25.242-.319-5.08-2.996-11.95-8.402-9.512-1.85.834-3.515,1.029-5.624.808-1.825-.191-2.693-1.192-4.274-1.538-4.757-1.04-8.322.406-6.874,5.565,2.966,10.566,10.469,28.817,34.409,39.958,6.649,3.095,14.57,5.521,22.614,7.411.171-.386.095-.833-.124-1.317Z"></path>
    <path class="cls-2" d="M110.404,280.26c1.28,1.261,3.363-.126,2.714-1.802-.427-1.103-.841-2.283-1.203-3.504-1.912-6.444-2.828-14.025-5.774-17.407-1.695-1.946-6.531-3.579-7.734-1.029-1.609,3.409-.462,7.977,4.008,14.375,2.598,3.719,5.498,6.912,7.989,9.367Z"></path>
  </g>
  <g>
    <path class="cls-1" d="M444.735,89.329c-16.218,0-29.433,11.31-29.433,32.402,0,18.953,12.914,32.403,31.836,32.403,5.406,0,11.113-1.376,16.369-4.127,1.502-.764,3.003-1.07,4.355-1.07,2.403,0,4.655,1.07,6.157,3.668l3.604,5.808c.601,1.07,1.051,2.445,1.051,3.821,0,2.293-1.051,4.738-3.304,6.419-9.16,6.419-18.471,8.406-30.485,8.406-32.587,0-55.112-22.009-55.112-55.329,0-30.721,18.772-55.329,54.962-55.329,10.662,0,17.72,1.987,25.529,5.961,2.252,1.07,3.604,3.516,3.604,5.961,0,1.223-.301,2.293-.751,3.363l-3.304,7.031c-1.201,2.751-3.754,4.127-6.457,4.127-1.201,0-2.403-.306-3.604-.764-4.205-1.681-8.86-2.751-15.017-2.751Z"></path>
    <path class="cls-1" d="M510.66,131.666c6.007,0,11.113,2.14,13.215,3.821v-1.375c0-7.184-3.604-10.393-9.611-10.393-3.904,0-7.959.764-11.113,1.681-.751.153-1.502.306-2.103.306-2.703,0-4.956-1.375-5.857-3.974l-1.952-5.044c-.3-.764-.451-1.528-.451-2.293,0-2.293,1.352-4.432,3.604-5.502,6.307-2.751,12.915-4.28,20.423-4.28,20.573,0,28.082,10.546,28.082,29.193v35.612c0,3.21-2.553,5.808-5.706,5.808h-8.109c-3.154,0-5.706-2.598-5.706-6.114-3.304,4.585-10.362,7.031-17.72,7.031-12.164,0-21.324-7.795-21.324-21.703,0-15.59,10.963-22.773,24.328-22.773ZM523.875,149.243c-2.103-1.528-4.806-2.293-8.56-2.293s-6.457,1.834-6.457,5.196c0,3.057,2.703,4.891,6.457,4.891,4.505,0,7.208-1.681,8.56-3.515v-4.28Z"></path>
    <path class="cls-1" d="M580.189,169.418c0,3.21-2.553,5.808-5.706,5.808h-11.113c-3.154,0-5.706-2.598-5.706-5.808v-95.373c0-3.21,2.553-5.808,5.706-5.808h11.113c3.154,0,5.706,2.598,5.706,5.808v95.373Z"></path>
    <path class="cls-1" d="M608.119,69.766c6.457,0,12.765,4.891,12.765,12.991,0,9.018-6.307,13.909-12.765,13.909-7.358,0-13.665-4.891-13.665-13.909,0-8.101,6.307-12.991,13.665-12.991ZM618.931,169.418c0,3.21-2.553,5.808-5.706,5.808h-11.113c-3.154,0-5.707-2.598-5.707-5.808v-57.163c0-3.21,2.553-5.808,5.707-5.808h11.113c3.153,0,5.706,2.598,5.706,5.808v57.163Z"></path>
    <path class="cls-1" d="M656.924,169.418c0,3.21-2.553,5.808-5.706,5.808h-11.113c-3.154,0-5.706-2.598-5.706-5.808v-74.128c0-19.105,9.611-28.887,24.628-28.887,6.458,0,11.113,1.07,16.819,3.974,2.402,1.223,3.304,3.21,3.304,5.044,0,1.07-.3,2.292-.751,3.21l-3.604,7.031c-1.351,2.598-3.003,3.21-4.505,3.21-.751,0-1.502-.153-2.252-.306-3.154-.764-4.054-.764-4.956-.764-3.904,0-6.157,2.751-6.157,8.865v9.782h8.56c3.153,0,5.706,2.598,5.706,5.808v9.782c0,3.21-2.553,5.808-5.706,5.808h-8.56v41.573Z"></path>
    <path class="cls-1" d="M716.692,104.613c23.126,0,37.542,15.59,37.542,36.223s-14.416,36.224-37.542,36.224-37.543-15.59-37.543-36.224,14.416-36.223,37.543-36.223ZM716.692,155.663c7.659,0,13.515-5.502,13.515-14.826,0-8.865-6.007-14.825-13.515-14.825-7.208,0-13.515,5.502-13.515,14.825,0,8.712,5.857,14.826,13.515,14.826Z"></path>
    <path class="cls-1" d="M786.521,169.418c0,3.21-2.553,5.808-5.706,5.808h-11.113c-3.154,0-5.706-2.598-5.706-5.808v-57.163c0-3.21,2.553-5.808,5.706-5.808h11.563c2.853,0,5.256,2.445,5.256,5.349,2.703-3.821,7.058-6.572,13.215-6.572,3.304,0,6.157.458,8.109,1.07,2.403.764,3.755,2.598,3.755,4.891,0,.917-.15,1.987-.601,3.057l-4.355,9.629c-1.051,2.446-3.154,3.668-6.007,3.668-.751,0-1.502-.153-2.252-.306-1.201-.306-2.853-.611-4.205-.611-3.754,0-6.157,2.14-7.659,4.891v37.905Z"></path>
    <path class="cls-1" d="M841.933,169.419c0,3.21-2.553,5.808-5.706,5.808h-11.113c-3.154,0-5.706-2.598-5.706-5.808v-57.163c0-3.21,2.553-5.808,5.706-5.808h11.713c2.853,0,5.106,2.292,5.106,5.196,3.604-3.363,9.611-6.419,16.669-6.419,15.618,0,27.481,7.489,27.481,29.04v35.154c0,3.21-2.553,5.808-5.706,5.808h-11.113c-3.154,0-5.706-2.598-5.706-5.808v-31.18c0-7.948-4.505-11.616-11.113-11.616-4.055,0-7.208,1.376-10.512,4.738v38.058Z"></path>
    <path class="cls-1" d="M911.761,69.766c6.457,0,12.765,4.891,12.765,12.991,0,9.018-6.307,13.909-12.765,13.909-7.358,0-13.665-4.891-13.665-13.909,0-8.101,6.307-12.991,13.665-12.991ZM922.573,169.419c0,3.21-2.553,5.808-5.706,5.808h-11.113c-3.154,0-5.707-2.598-5.707-5.808v-57.163c0-3.21,2.553-5.808,5.707-5.808h11.113c3.153,0,5.706,2.598,5.706,5.808v57.163Z"></path>
    <path class="cls-1" d="M958.614,131.667c6.007,0,11.113,2.14,13.215,3.821v-1.375c0-7.184-3.604-10.393-9.611-10.393-3.904,0-7.959.764-11.113,1.681-.751.153-1.502.306-2.103.306-2.703,0-4.956-1.375-5.857-3.974l-1.952-5.044c-.3-.764-.451-1.528-.451-2.293,0-2.293,1.352-4.432,3.604-5.502,6.307-2.751,12.915-4.28,20.423-4.28,20.573,0,28.082,10.546,28.082,29.193v35.612c0,3.21-2.553,5.808-5.706,5.808h-8.109c-3.154,0-5.706-2.598-5.706-6.114-3.304,4.585-10.362,7.031-17.72,7.031-12.164,0-21.324-7.795-21.324-21.703,0-15.59,10.963-22.773,24.328-22.773ZM971.829,149.244c-2.103-1.528-4.806-2.293-8.56-2.293s-6.457,1.834-6.457,5.196c0,3.057,2.703,4.891,6.457,4.891,4.505,0,7.208-1.681,8.56-3.515v-4.28Z"></path>
    <path class="cls-1" d="M390.895,307.204l-6.757,17.424c-1.201,3.057-4.055,5.044-7.208,5.044h-9.161c-3.754,0-6.457-3.21-6.457-6.572,0-.917.15-1.834.451-2.598l37.843-92.775c1.351-3.057,4.205-5.044,7.358-5.044h10.963c3.154,0,6.007,1.987,7.358,5.044l37.842,92.775c.301.764.451,1.681.451,2.598,0,3.363-2.703,6.572-6.457,6.572h-10.662c-3.154,0-6.007-1.987-7.208-5.044l-6.757-17.424h-41.597ZM399.905,284.278h23.576l-11.713-30.263-11.863,30.263Z"></path>
    <path class="cls-1" d="M538.962,323.864c0,3.21-2.553,5.808-5.706,5.808h-11.413c-3.003,0-5.406-2.446-5.406-5.655-4.054,3.974-9.16,6.878-17.119,6.878-19.222,0-31.235-13.909-31.235-34.695,0-21.856,15.167-37.141,37.242-37.141,4.655,0,8.26.764,11.113,2.14v-32.708c0-3.21,2.554-5.808,5.707-5.808h11.113c3.154,0,5.706,2.598,5.706,5.808v95.373ZM516.437,283.361c-3.153-1.834-6.457-2.904-10.061-2.904-7.058,0-14.266,4.738-14.266,14.978,0,9.323,6.157,14.061,11.863,14.061,4.956,0,9.16-1.987,12.464-5.044v-21.092Z"></path>
    <path class="cls-1" d="M586.265,259.059c23.126,0,37.542,15.59,37.542,36.223s-14.416,36.224-37.542,36.224-37.543-15.59-37.543-36.224,14.416-36.223,37.543-36.223ZM586.265,310.108c7.659,0,13.515-5.502,13.515-14.826,0-8.865-6.007-14.825-13.515-14.825-7.208,0-13.515,5.502-13.515,14.825,0,8.712,5.857,14.826,13.515,14.826Z"></path>
    <path class="cls-1" d="M656.094,354.432c0,3.21-2.553,5.808-5.706,5.808h-11.113c-3.154,0-5.706-2.598-5.706-5.808v-87.731c0-3.21,2.553-5.808,5.706-5.808h11.863c2.703,0,4.956,2.292,4.956,5.044,3.754-3.668,10.512-6.878,18.771-6.878,18.171,0,30.184,14.826,30.184,35.153,0,20.939-14.416,37.294-36.341,37.294-4.655,0-9.461-.764-12.614-2.14v25.066ZM656.094,307.51c3.304,1.987,5.706,2.598,10.512,2.598,9.761,0,14.416-7.031,14.416-15.437,0-7.948-4.655-14.214-13.215-14.214-4.355,0-7.959,1.834-11.713,6.113v20.939Z"></path>
    <path class="cls-1" d="M740.189,302.466c0,4.127,1.351,7.642,4.956,7.642,1.502,0,3.604-.458,5.106-1.07,1.051-.458,1.952-.611,2.853-.611,2.102,0,3.754,1.07,4.805,3.363l3.154,6.266c.451.764.601,1.681.601,2.599,0,2.14-1.051,4.28-3.154,5.502-6.007,3.516-11.713,5.35-19.823,5.35-15.317,0-21.024-10.393-21.024-27.97v-21.245h-3.904c-3.154,0-5.706-2.598-5.706-5.808v-9.782c0-3.21,2.553-5.808,5.706-5.808h3.904v-13.297c0-3.21,2.553-5.808,5.707-5.808h11.113c3.154,0,5.707,2.598,5.706,5.808v13.297h10.061c3.154,0,5.706,2.598,5.706,5.808v9.782c0,3.21-2.553,5.808-5.706,5.808h-10.061v20.175Z"></path>
    <path class="cls-1" d="M807.315,291.004c0,3.974-3.304,7.337-7.208,7.336h-25.228c-3.904,0-7.208-3.363-7.208-7.337v-6.725c0-3.974,3.304-7.337,7.208-7.337h25.228c3.904,0,7.208,3.363,7.208,7.337v6.725Z"></path>
    <path class="cls-1" d="M840.653,286.113c6.007,0,11.113,2.14,13.215,3.821v-1.375c0-7.184-3.604-10.393-9.611-10.393-3.904,0-7.959.764-11.113,1.681-.751.153-1.502.306-2.103.306-2.703,0-4.956-1.375-5.857-3.974l-1.952-5.044c-.3-.764-.451-1.528-.451-2.293,0-2.293,1.352-4.432,3.604-5.502,6.307-2.751,12.915-4.28,20.423-4.28,20.573,0,28.082,10.546,28.082,29.193v35.612c0,3.21-2.553,5.808-5.706,5.808h-8.109c-3.154,0-5.706-2.598-5.706-6.114-3.304,4.585-10.362,7.031-17.72,7.031-12.164,0-21.324-7.795-21.324-21.703,0-15.59,10.963-22.773,24.328-22.773ZM853.868,303.689c-2.103-1.528-4.806-2.293-8.56-2.293s-6.457,1.834-6.457,5.196c0,3.057,2.703,4.891,6.457,4.891,4.505,0,7.208-1.681,8.56-3.515v-4.28Z"></path>
    <path class="cls-1" d="M925.799,291.004c0,3.974-3.304,7.337-7.208,7.337h-25.228c-3.904,0-7.208-3.363-7.208-7.337v-6.725c0-3.974,3.304-7.337,7.208-7.337h25.228c3.904,0,7.208,3.363,7.208,7.337v6.725Z"></path>
    <path class="cls-1" d="M1018.454,257.837c0,19.105-14.566,35.918-38.894,35.918-2.252,0-7.959,0-11.713-.458v29.346c0,3.821-3.153,7.031-6.908,7.031h-10.211c-3.754,0-6.908-3.21-6.908-7.031v-92.775c0-3.974,3.154-7.184,6.908-7.184,7.959-.153,19.372-.306,25.228-.306,31.986,0,42.498,16.965,42.498,35.459ZM967.847,270.064c3.454.458,7.509.764,10.963.764,6.307,0,14.116-2.751,14.116-13.144,0-9.476-6.007-12.38-14.566-12.38-3.154,0-5.556.153-10.512.306v24.455Z"></path>
    <path class="cls-1" d="M1039.629,302.925c2.102,6.572,8.409,9.476,15.768,9.476,4.956,0,8.559-.611,12.164-1.987,1.201-.458,2.252-.611,3.304-.611,2.253,0,4.205,1.07,5.256,3.21l2.403,4.891c.45.917.601,1.834.601,2.751,0,1.987-1.051,3.974-2.703,5.044-8.56,4.891-15.317,5.808-23.426,5.808-22.225,0-36.642-14.52-36.642-36.224,0-20.022,14.416-36.223,36.642-36.223,17.42,0,32.737,12.839,32.737,32.402,0,2.904-.15,5.044-.451,6.878-.3,2.292-2.853,4.585-5.106,4.585h-40.546ZM1052.244,278.165c-7.509,0-11.263,3.363-13.365,9.476h24.327c0-4.738-3.754-9.476-10.962-9.476Z"></path>
    <path class="cls-1" d="M1119.369,302.467c0,4.127,1.351,7.642,4.956,7.642,1.502,0,3.604-.458,5.106-1.07,1.051-.458,1.952-.611,2.853-.611,2.102,0,3.754,1.07,4.805,3.363l3.154,6.266c.451.764.601,1.681.601,2.599,0,2.14-1.051,4.28-3.154,5.502-6.007,3.516-11.713,5.35-19.823,5.35-15.317,0-21.024-10.393-21.024-27.97v-21.245h-3.904c-3.154,0-5.706-2.598-5.706-5.808v-9.782c0-3.21,2.553-5.808,5.706-5.808h3.904v-13.297c0-3.21,2.553-5.808,5.707-5.808h11.113c3.154,0,5.707,2.598,5.706,5.808v13.297h10.061c3.154,0,5.706,2.598,5.706,5.808v9.782c0,3.21-2.553,5.808-5.706,5.808h-10.061v20.175Z"></path>
    <path class="cls-1" d="M1213.076,222.225c42.047,0,59.016,24.607,59.016,53.036,0,29.957-20.123,54.717-60.218,54.717-4.505,0-14.566-.153-25.078-.306-3.754,0-6.908-3.21-6.908-7.184v-92.622c0-3.974,3.154-7.184,6.908-7.184,8.86-.153,21.024-.458,26.28-.458ZM1203.915,306.746c3.154.306,5.256.306,8.71.306,20.723,0,33.938-11.463,33.938-31.791,0-19.717-14.266-30.11-33.788-30.11-2.553,0-5.856,0-8.86.458v61.136Z"></path>
    <path class="cls-1" d="M1303.927,286.113c6.007,0,11.113,2.14,13.215,3.821v-1.375c0-7.184-3.604-10.393-9.611-10.393-3.904,0-7.959.764-11.113,1.681-.751.153-1.502.306-2.103.306-2.703,0-4.956-1.375-5.857-3.974l-1.952-5.044c-.3-.764-.451-1.528-.451-2.293,0-2.293,1.352-4.432,3.604-5.502,6.307-2.751,12.915-4.28,20.423-4.28,20.573,0,28.082,10.546,28.082,29.193v35.612c0,3.21-2.553,5.808-5.706,5.808h-8.109c-3.154,0-5.706-2.598-5.706-6.114-3.304,4.585-10.362,7.031-17.72,7.031-12.164,0-21.324-7.795-21.324-21.703,0-15.59,10.963-22.773,24.328-22.773ZM1317.142,303.689c-2.103-1.528-4.806-2.293-8.56-2.293s-6.457,1.834-6.457,5.196c0,3.057,2.703,4.891,6.457,4.891,4.505,0,7.208-1.681,8.56-3.515v-4.28Z"></path>
    <path class="cls-1" d="M1382.916,301.856c.301-3.057.601-6.114,1.652-9.629l7.659-26.9c.751-2.598,3.154-4.432,5.706-4.432h10.662c4.205,0,7.208,3.515,7.208,7.336,0,.917-.15,1.681-.451,2.598l-22.525,58.844c-9.912,24.608-16.218,30.568-27.331,30.568-4.956,0-9.311-1.376-14.266-4.585-1.502-1.07-2.403-2.751-2.403-4.738,0-1.07.3-2.293.901-3.363l3.304-5.961c1.352-2.445,2.252-3.668,4.956-3.668,1.802,0,3.604,1.223,6.457,1.223,2.703,0,4.655-2.904,5.857-5.808l1.502-3.668-25.829-58.997c-.45-.917-.601-1.987-.601-2.904,0-3.668,2.853-6.878,6.757-6.878h12.164c2.703,0,5.106,1.834,6.157,4.432l9.911,27.053c1.201,3.21,1.802,6.266,2.553,9.476Z"></path>
  </g>
</svg>
